<?xml version="1.0" encoding="UTF-8"?>
<svg version="1.1" xmlns="http://www.w3.org/2000/svg" width="250" height="225">
<path d="M0 0 C10.90888014 -0.34849202 21.81642499 -0.61452602 32.72974968 -0.77718258 C37.79840344 -0.85528076 42.86323457 -0.96105416 47.9296875 -1.1315918 C52.82542095 -1.29533986 57.71749564 -1.38440436 62.61575699 -1.42315865 C64.47810629 -1.45074718 66.34026822 -1.50463571 68.20104599 -1.58595085 C82.36430572 -2.17990881 82.36430572 -2.17990881 86.78873444 1.47941208 C90.65527914 5.84754193 94.30890781 11.37329492 95.41232109 17.16377354 C95.70322215 18.07270564 95.70322215 18.07270564 96 19 C97.485 19.495 97.485 19.495 99 20 C100.17578125 21.78515625 100.17578125 21.78515625 101.3125 24.0625 C103.4613966 28.17029929 105.93443803 31.68800222 108.86328125 35.2734375 C110 37 110 37 110 40 C110.66 40 111.32 40 112 40 C112.495 41.98 112.495 41.98 113 44 C113.66 44 114.32 44 115 44 C115.350625 44.78375 115.70125 45.5675 116.0625 46.375 C118.48166573 51.26030555 121.81985097 55.59135505 125 60 C126.32 57.69 127.64 55.38 129 53 C129.66 53 130.32 53 131 53 C131.99 50.03 131.99 50.03 133 47 C133.66 47 134.32 47 135 47 C135.33 45.68 135.66 44.36 136 43 C136.66 43 137.32 43 138 43 C138.0825 42.484375 138.165 41.96875 138.25 41.4375 C139.32140225 37.95544268 141.13523605 35.12799115 143 32 C143.66 32 144.32 32 145 32 C145.268125 31.278125 145.53625 30.55625 145.8125 29.8125 C146.99901362 27.00233617 148.27485639 24.51583443 150 22 C150.66 22 151.32 22 152 22 C152.33 20.35 152.66 18.7 153 17 C153.66 17 154.32 17 155 17 C155.3403125 15.700625 155.3403125 15.700625 155.6875 14.375 C156.82285297 11.45552094 157.59272003 10.08400927 159.5625 7.8125 C162.14902427 5.19018019 162.14902427 5.19018019 163 2 C163.66 2 164.32 2 165 2 C165 1.34 165 0.68 165 0 C192.72 0 220.44 0 249 0 C249 0.99 249 1.98 249 3 C248.34 3 247.68 3 247 3 C247 3.99 247 4.98 247 6 C245.67593632 7.34253899 244.34008426 8.67345195 243 10 C240.71008953 13.19682363 238.64026982 16.54297092 236.53515625 19.86328125 C235.40513388 21.6078173 234.20773266 23.30833265 233 25 C232.34 25 231.68 25 231 25 C230.814375 25.9590625 230.814375 25.9590625 230.625 26.9375 C230.41875 27.618125 230.2125 28.29875 230 29 C229.34 29.33 228.68 29.66 228 30 C227.67 30.99 227.34 31.98 227 33 C226 34 225 35 224 36 C223.67 36.99 223.34 37.98 223 39 C222.24074219 39.75667969 221.48148438 40.51335938 220.69921875 41.29296875 C217.02883262 44.97397828 214.53227167 49.17159997 211.76953125 53.55078125 C211.18558594 54.35902344 210.60164062 55.16726562 210 56 C209.34 56 208.68 56 208 56 C207.8453125 56.8971875 207.8453125 56.8971875 207.6875 57.8125 C206.90088144 60.31537724 205.86454169 61.21314755 204 63 C203.67 63.99 203.34 64.98 203 66 C201.8177042 67.14851592 200.63437944 68.29599574 199.4453125 69.4375 C197.18242442 71.88386549 195.48725656 74.66216345 193.6796875 77.453125 C186.08560739 88.96786972 186.08560739 88.96786972 182.32421875 92.6328125 C180.73363417 94.07763291 180.73363417 94.07763291 180 97 C179.01893162 98.01857982 178.0153004 99.01553817 177 100 C175.71421752 101.618033 174.46617463 103.26651627 173.25 104.9375 C172.61578125 105.79214844 171.9815625 106.64679688 171.328125 107.52734375 C169.77988183 109.82492141 169.77988183 109.82492141 170.27416992 111.94311523 C171.03171487 114.0898748 171.92473449 115.56485455 173.28515625 117.3828125 C173.73310547 117.99253906 174.18105469 118.60226563 174.64257812 119.23046875 C175.11115234 119.85566406 175.57972656 120.48085937 176.0625 121.125 C181 127.73976808 181 127.73976808 181 130 C181.66 130 182.32 130 183 130 C183.33 131.32 183.66 132.64 184 134 C184.66 134 185.32 134 186 134 C187.2890625 135.6796875 187.2890625 135.6796875 188.625 137.875 C189.07101563 138.59429687 189.51703125 139.31359375 189.9765625 140.0546875 C191 142 191 142 191 144 C191.66 144 192.32 144 193 144 C193.103125 144.639375 193.20625 145.27875 193.3125 145.9375 C193.539375 146.618125 193.76625 147.29875 194 148 C194.99 148.33 195.98 148.66 197 149 C197 149.99 197 150.98 197 152 C197.66 152 198.32 152 199 152 C201 155 201 155 201 158 C201.99 158.33 202.98 158.66 204 159 C205.78643196 161.36308387 207.43794243 163.71694319 209.0625 166.1875 C210.03771382 167.64283174 211.01430683 169.09724011 211.9921875 170.55078125 C212.7361377 171.65993896 212.7361377 171.65993896 213.49511719 172.79150391 C216.23600808 176.81390803 219.11264948 180.7403976 222.00219727 184.65698242 C225 188.78347042 225 188.78347042 225 191 C225.66 191 226.32 191 227 191 C227.33 192.32 227.66 193.64 228 195 C228.66 195 229.32 195 230 195 C230.33 196.32 230.66 197.64 231 199 C231.66 199 232.32 199 233 199 C233.268125 199.969375 233.53625 200.93875 233.8125 201.9375 C234.4003125 203.4534375 234.4003125 203.4534375 235 205 C235.99 205.33 236.98 205.66 238 206 C238 206.99 238 207.98 238 209 C238.66 209 239.32 209 240 209 C241.63820852 211.07289562 243.14252648 213.13280065 244.625 215.3125 C245.04523438 215.90740234 245.46546875 216.50230469 245.8984375 217.11523438 C249 221.62156301 249 221.62156301 249 225 C238.07371313 225.32508588 227.14858438 225.57347454 216.21843815 225.72537041 C211.14217343 225.79829658 206.06922725 225.89709259 200.99487305 226.05615234 C196.09270922 226.20884414 191.19372461 226.2920848 186.28936577 226.3282814 C184.42347573 226.35405421 182.55775077 226.40439466 180.69322395 226.48022079 C166.45951326 227.03578583 166.45951326 227.03578583 162.29807663 223.59128571 C158.96860446 219.75687482 155 214.22268797 155 209 C154.34 209 153.68 209 153 209 C151.47496057 206.83977715 150.0681014 204.68752628 148.6875 202.4375 C147.87636599 201.14237265 147.06388017 199.84809088 146.25 198.5546875 C145.86070312 197.93432617 145.47140625 197.31396484 145.0703125 196.67480469 C143.84194989 194.75268618 142.54110583 192.89832791 141.1875 191.0625 C135 182.4 135 182.4 135 179 C134.34 179 133.68 179 133 179 C132.4225 177.96875 131.845 176.9375 131.25 175.875 C129.84481557 173.4008717 128.36784682 171.02759986 126.75 168.6875 C125 166 125 166 125 164 C124.34 164.33 123.68 164.66 123 165 C122.67 165.99 122.34 166.98 122 168 C121.34 168.33 120.68 168.66 120 169 C119.27840576 170.64363134 118.60648579 172.31050386 118 174 C117.34 174 116.68 174 116 174 C115.67 175.32 115.34 176.64 115 178 C114.34 178 113.68 178 113 178 C112.92265625 178.53109375 112.8453125 179.0621875 112.765625 179.609375 C111.7078332 182.91227593 109.76046477 185.46960438 107.75 188.25 C105.05560916 192.03837009 102.44367398 195.815274 100.0625 199.8125 C99.381875 200.864375 98.70125 201.91625 98 203 C97.34 203 96.68 203 96 203 C95.814375 204.2065625 95.814375 204.2065625 95.625 205.4375 C95.41875 206.283125 95.2125 207.12875 95 208 C94.34 208.33 93.68 208.66 93 209 C92.67 209.99 92.34 210.98 92 212 C91.34 212.33 90.68 212.66 90 213 C89.27840576 214.64363134 88.60648579 216.31050386 88 218 C87.34 218 86.68 218 86 218 C85.67 219.32 85.34 220.64 85 222 C84.34 222 83.68 222 83 222 C83 222.99 83 223.98 83 225 C55.28 225 27.56 225 -1 225 C-0.67 223.35 -0.34 221.7 0 220 C0.99 219.67 1.98 219.34 3 219 C4.22520264 215.99152582 4.22520264 215.99152582 5 213 C5.66 213 6.32 213 7 213 C7.12375 212.360625 7.2475 211.72125 7.375 211.0625 C7.58125 210.381875 7.7875 209.70125 8 209 C8.66 208.67 9.32 208.34 10 208 C10.33 207.01 10.66 206.02 11 205 C11.66 205 12.32 205 13 205 C13.226875 204.32582031 13.45375 203.65164062 13.6875 202.95703125 C15.3636893 199.18061666 17.59104541 196.02906415 20 192.6875 C20.45117188 192.04232422 20.90234375 191.39714844 21.3671875 190.73242188 C22.52420937 189.11498745 23.75666577 187.55206756 25 186 C25.66 186 26.32 186 27 186 C27.12375 185.360625 27.2475 184.72125 27.375 184.0625 C27.58125 183.381875 27.7875 182.70125 28 182 C28.66 181.67 29.32 181.34 30 181 C30.33 180.01 30.66 179.02 31 178 C31.66 178 32.32 178 33 178 C33.226875 177.32582031 33.45375 176.65164062 33.6875 175.95703125 C35.3636893 172.18061666 37.59104541 169.02906415 40 165.6875 C40.45117188 165.04232422 40.90234375 164.39714844 41.3671875 163.73242188 C42.52420937 162.11498745 43.75666577 160.55206756 45 159 C45.66 159 46.32 159 47 159 C47.185625 158.0409375 47.185625 158.0409375 47.375 157.0625 C47.684375 156.0415625 47.684375 156.0415625 48 155 C48.66 154.67 49.32 154.34 50 154 C51.4888204 151.70473521 52.80511831 149.42873973 53.9375 146.9375 C55 145 55 145 56.75 143.3125 C59.54022112 140.44477274 61.76608251 137.32981663 64.0625 134.0625 C64.49626953 133.45470703 64.93003906 132.84691406 65.37695312 132.22070312 C67.25933549 129.56473897 69.03857305 126.93404098 70.68359375 124.12109375 C72 122 72 122 74 121 C74.495 119.515 74.495 119.515 75 118 C75.53625 117.54625 76.0725 117.0925 76.625 116.625 C78.26053777 115.0736027 78.26053777 115.0736027 77.85546875 112.80078125 C76.76727184 109.23805439 74.85932869 106.53356164 72.6875 103.5625 C71.8992483 102.4599865 71.11148508 101.35712358 70.32421875 100.25390625 C69.55722656 99.18011719 68.79023437 98.10632813 68 97 C67.28457031 95.89527344 66.56914063 94.79054688 65.83203125 93.65234375 C64.26873512 90.93362876 64.26873512 90.93362876 62 90 C61.27306096 88.02111039 60.60183749 86.02045442 60 84 C59.34 84 58.68 84 58 84 C57.67 83.01 57.34 82.02 57 81 C56.484375 80.484375 55.96875 79.96875 55.4375 79.4375 C54.963125 78.963125 54.48875 78.48875 54 78 C54 77.34 54 76.68 54 76 C53.34 76 52.68 76 52 76 C51.34 74.02 50.68 72.04 50 70 C49.34 70 48.68 70 48 70 C47.67 68.68 47.34 67.36 47 66 C46.34 66 45.68 66 45 66 C43.5738219 64.15772765 42.23564453 62.24712456 40.9375 60.3125 C40.13284744 59.12627838 39.32815884 57.94008121 38.5234375 56.75390625 C37.68226539 55.50262183 36.84111984 54.25131955 36 53 C34.36181753 50.57803738 32.71414525 48.162794 31.0625 45.75 C30.33160156 44.67234375 29.60070312 43.5946875 28.84765625 42.484375 C27.23914089 39.93172835 27.23914089 39.93172835 25 39 C24.33333333 37.33333333 23.66666667 35.66666667 23 34 C22.34 33.67 21.68 33.34 21 33 C20.67 32.01 20.34 31.02 20 30 C19.34 29.67 18.68 29.34 18 29 C17.33333333 27.33333333 16.66666667 25.66666667 16 24 C15.34 23.67 14.68 23.34 14 23 C13.67 22.01 13.34 21.02 13 20 C12.484375 19.484375 11.96875 18.96875 11.4375 18.4375 C10.963125 17.963125 10.48875 17.48875 10 17 C10 16.34 10 15.68 10 15 C9.34 15 8.68 15 8 15 C6.54805635 13.11947058 5.18635395 11.16863151 3.875 9.1875 C3.15054687 8.10855469 2.42609375 7.02960937 1.6796875 5.91796875 C0 3 0 3 0 0 Z " fill="#00E6FF" transform="translate(1,0)"/>
</svg>
